<svg width="133" height="133" viewBox="0 0 133 133" fill="none" xmlns="http://www.w3.org/2000/svg">
<path d="M78.3393 38.8239H54.3534C51.6473 36.1178 50.0482 28.061 50.0482 12.993C50.0482 12.993 50.0482 1 66.5001 1C82.952 1 82.952 12.993 82.952 12.993C82.952 30.7056 79.8769 37.5939 78.3393 38.8239Z" fill="white" stroke="#5A7873" stroke-width="2" stroke-linecap="round"/>
<path d="M54.6607 94.1761L78.6466 94.1761C81.3527 96.8822 82.9518 104.939 82.9518 120.007C82.9518 120.007 82.9518 132 66.4999 132C50.048 132 50.048 120.007 50.048 120.007C50.048 102.294 53.1231 95.4061 54.6607 94.1761Z" fill="white" stroke="#5A7873" stroke-width="2" stroke-linecap="round"/>
<path d="M94.1761 78.3393L94.1761 54.3534C96.8822 51.6473 104.939 50.0482 120.007 50.0482C120.007 50.0482 132 50.0482 132 66.5001C132 82.952 120.007 82.952 120.007 82.952C102.294 82.952 95.4061 79.8769 94.1761 78.3393Z" fill="white" stroke="#5A7873" stroke-width="2" stroke-linecap="round"/>
<path d="M38.8239 54.6608L38.8239 78.6467C36.1178 81.3528 28.061 82.9519 12.993 82.9519C12.993 82.9519 1 82.9519 1 66.5C1 50.0481 12.993 50.0481 12.993 50.0481C30.7056 50.0481 37.5939 53.1233 38.8239 54.6608Z" fill="white" stroke="#5A7873" stroke-width="2" stroke-linecap="round"/>
<path d="M77.6982 94.4414L94.6588 77.4808C98.4858 77.4808 105.314 82.0471 115.968 92.7018C115.968 92.7018 124.449 101.182 112.815 112.815C101.182 124.449 92.7018 115.968 92.7018 115.968C80.1771 103.444 77.4808 96.3984 77.6982 94.4414Z" fill="white" stroke="#5A7873" stroke-width="2" stroke-linecap="round"/>
<path d="M55.3015 38.5586L38.3409 55.5192C34.5139 55.5192 27.6862 50.9529 17.0314 40.2982C17.0314 40.2982 8.55115 31.8179 20.1844 20.1846C31.8176 8.55141 40.2979 17.0317 40.2979 17.0317C52.8227 29.5565 55.519 36.6016 55.3015 38.5586Z" fill="white" stroke="#5A7873" stroke-width="2" stroke-linecap="round"/>
<path d="M38.5584 77.6985L55.519 94.6591C55.519 98.4861 50.9527 105.314 40.2979 115.969C40.2979 115.969 31.8176 124.449 20.1844 112.816C8.55116 101.182 17.0315 92.7021 17.0315 92.7021C29.5562 80.1773 36.6014 77.481 38.5584 77.6985Z" fill="white" stroke="#5A7873" stroke-width="2" stroke-linecap="round"/>
<path d="M94.4414 55.302L77.4808 38.3414C77.4808 34.5144 82.0471 27.6867 92.7018 17.0319C92.7018 17.0319 101.182 8.55164 112.815 20.1849C124.449 31.8181 115.968 40.2984 115.968 40.2984C103.444 52.8232 96.3984 55.5195 94.4414 55.302Z" fill="white" stroke="#5A7873" stroke-width="2" stroke-linecap="round"/>
<circle cx="66.8074" cy="66.8076" r="34.4413" fill="white"/>
<circle cx="66.5001" cy="66.5001" r="30.6737" fill="#FFF6E5" stroke="#5A7873" stroke-width="2"/>
<ellipse cx="57.8897" cy="59.1196" rx="4.61268" ry="8.91784" fill="#5A7873"/>
<ellipse cx="75.1102" cy="59.1196" rx="4.61268" ry="8.91784" fill="#5A7873"/>
<ellipse cx="58.8123" cy="54.8144" rx="1.23005" ry="2.15258" fill="white"/>
<ellipse cx="76.6478" cy="54.8144" rx="1.23005" ry="2.15258" fill="white"/>
<path d="M44.3591 68.9601C44.3591 68.9601 44.3591 71.4202 46.5117 71.4202M48.6643 68.9601C48.6643 68.9601 48.6643 71.4202 46.5117 71.4202M46.5117 71.4202C46.5117 76.7504 50.3864 87.4108 65.885 87.4108C83.1056 87.4108 87.2058 76.7504 87.1033 71.4202M84.9507 68.9601C84.9507 68.9601 84.9507 71.4202 87.1033 71.4202M89.2558 68.9601C89.2558 68.9601 89.2558 71.4202 87.1033 71.4202" stroke="#5A7873" stroke-width="2"/>
</svg>
