<svg width="511" height="187" viewBox="0 0 511 187" fill="none" xmlns="http://www.w3.org/2000/svg">
<path d="M390 116.789L395.965 131M431.33 104L439 119.632" stroke="#CF3026" stroke-width="7" stroke-linecap="square"/>
<path d="M0 117.045C45.8864 131.417 135.86 148.213 128.662 100.428C127.312 94.2903 118.154 80.4648 108.418 92.3441C92.2227 112.105 149.356 127.824 133.61 166.447C117.865 205.07 80.976 166.447 108.418 148.034C144.356 123.919 138.109 135.908 174.998 109.41L157.453 154.77C176.948 137.854 211.707 112.824 194.792 148.034C192.093 152.525 188.944 152.244 185.795 150.279C180.397 146.911 205.589 113.452 219.535 126.027C233.481 138.602 242.928 170.04 281.167 119.74C281.617 143.842 295.293 176.417 346.398 113.901C410.279 35.7566 398.132 -20.382 374.739 14.6485C351.346 49.6789 313.107 143.992 367.541 170.04C406.589 188.726 473.26 171.387 489.455 100.428C485.256 101.925 476.589 106.716 475.509 113.901C474.16 122.884 481.807 135.01 507 131.866M305.46 72.1344L291.064 82.0148" stroke="#CF3026" stroke-width="7" stroke-linecap="square"/>
</svg>
